Poster: 
http://imgr.us/images/muw2dwb8tnghzktlh8qx.jpg

Info:

Format : AVI
Format/Info : Audio Video Interleave
File size : 1.40 GiB
Duration : 1h 47mn
Overall bit rate : 1 853 Kbps
Writing application : VirtualDubMod 1.5.10.3 | www.virtualdub-fr.org || (build 2550/release)
Writing library : VirtualDubMod build 2550/release

Video
ID : 0
Format : MPEG-4 Visual
Format profile : Advanced Simple@L5
Format settings, BVOP : 2
Format settings, QPel : No
Format settings, GMC : No warppoints
Format settings, Matrix : Default (H.263)
Muxing mode : Packed bitstream
Codec ID : XVID
Codec ID/Hint : XviD
Duration : 1h 47mn
Bit rate : 1 715 Kbps
Width : 720 pixels
Height : 304 pixels
Display aspect ratio : 2.35:1
Frame rate : 23.976 fps
Color space : YUV
Chroma subsampling : 4:2:0
Bit depth : 8 bits
Scan type : Progressive
Compression mode : Lossy
Bits/(Pixel*Frame) : 0.327
Stream size : 1.29 GiB (93%)
Writing library : XviD 64

Audio
ID : 1
Format : AC-3
Format/Info : Audio Coding 3
Mode extension : CM (complete main)
Codec ID : 2000
Duration : 1h 47mn
Bit rate mode : Constant
Bit rate : 128 Kbps
Channel(s) : 2 channels
Channel positions : Front: L R
Sampling rate : 48.0 KHz
Bit depth : 16 bits
Compression mode : Lossy
Stream size : 98.7 MiB (7%)
Alignment : Split accross interleaves
Interleave, duration : 42 ms (1.00 video frame)
Interleave, preload duration : 500 ms



Source Used ...............JYK 720p.............................Thanks




Slight mistake with 2ch audio but im sure you gonna get plenty choices soon if this no good



Screens:
 
http://imgr.us/images/9l681puw66wftghv57n.png 
http://imgr.us/images/vyp9vxtcn8i1j4c47x6b.png 
http://imgr.us/images/5k74zqxcu20zqkw4ui54.png 
http://imgr.us/images/cf8r5y9pvoscviut045n.png